<svg xmlns="http://www.w3.org/2000/svg" viewBox="0 0 24 24" fill="#0066DC">
  <path d="M12.036 0C5.426 0 .108 5.248.003 11.818h5.347c.103-3.659 3.109-6.588 6.79-6.588 3.756 0 6.807 3.047 6.807 6.804 0 3.756-3.051 6.803-6.807 6.803-1.357 0-2.62-.398-3.682-1.082v6.232A11.824 11.824 0 0 0 12.036 24c6.537 0 11.854-5.248 11.959-11.818h-5.347c-.103 3.659-3.109 6.588-6.79 6.588-3.756 0-6.807-3.047-6.807-6.804 0-3.756 3.051-6.803 6.807-6.803 1.357 0 2.62.398 3.682 1.082V.013A11.824 11.824 0 0 0 12.036 0z"/>
</svg>
