<svg xmlns="http://www.w3.org/2000/svg" viewBox="0 0 24 24" fill="#6c757d">
  <path d="M12 2C6.486 2 2 6.486 2 12s4.486 10 10 10 10-4.486 10-10S17.514 2 12 2zm7.931 9H16.5c-.108-2.559-.682-4.927-1.628-6.756A8.02 8.02 0 0 1 19.931 11zM12 4.052c1.26 1.362 2.173 3.594 2.45 6.948h-4.9c.277-3.354 1.19-5.586 2.45-6.948zm-2.872.204C8.182 6.085 7.608 8.453 7.5 11H4.069a8.02 8.02 0 0 1 5.059-6.744zM4.069 13H7.5c.108 2.559.682 4.927 1.628 6.756A8.02 8.02 0 0 1 4.069 13zM12 19.948c-1.26-1.362-2.173-3.594-2.45-6.948h4.9c-.277 3.354-1.19 5.586-2.45 6.948zm2.872-.204c.946-1.829 1.52-4.197 1.628-6.756h3.431a8.02 8.02 0 0 1-5.059 6.756z"/>
</svg>
