<svg xmlns="http://www.w3.org/2000/svg" viewBox="0 0 24 24" fill="#FF5500">
  <path d="M1.175 12.225c-.051 0-.094.046-.101.1l-.233 2.154.233 2.105c.007.058.05.098.101.098.05 0 .09-.04.099-.098l.255-2.105-.27-2.154c-.009-.06-.052-.1-.101-.1m-.899.828c-.06 0-.091.037-.104.094L0 14.479l.165 1.308c.014.057.045.094.09.094.051 0 .089-.037.099-.094l.194-1.308-.194-1.332c-.01-.057-.045-.094-.09-.094m1.83-1.229c-.061 0-.12.045-.12.104l-.21 2.563.225 2.458c0 .06.045.104.106.104.061 0 .12-.044.12-.104l.24-2.458-.24-2.563c0-.06-.045-.104-.106-.104m.944-.57c-.074 0-.134.06-.134.135l-.18 3.135.18 2.895c0 .074.06.135.135.135.074 0 .135-.061.135-.135l.21-2.895-.21-3.135c0-.075-.061-.135-.135-.135m1.006-.495c-.09 0-.15.075-.15.15l-.165 3.63.165 2.79c0 .09.06.15.15.15.09 0 .15-.06.15-.15l.18-2.79-.18-3.63c0-.075-.06-.15-.15-.15m1.067-.39c-.104 0-.176.074-.176.165l-.135 4.005.135 2.685c0 .09.074.165.176.165.09 0 .165-.074.165-.165l.15-2.685-.15-4.005c0-.09-.074-.165-.165-.165m1.098-.21c-.105 0-.195.09-.195.195l-.12 4.215.12 2.61c0 .105.09.195.195.195.104 0 .194-.09.194-.195l.135-2.61-.135-4.215c0-.105-.09-.195-.195-.195m1.14-.165c-.12 0-.21.09-.225.21l-.105 4.395.105 2.565c.015.12.105.21.225.21.119 0 .21-.09.225-.21l.12-2.565-.12-4.395c-.015-.12-.105-.21-.225-.21m1.17-.135c-.135 0-.24.105-.24.24l-.09 4.53.09 2.52c0 .135.105.24.24.24.12 0 .24-.105.24-.24l.105-2.52-.105-4.53c0-.135-.12-.24-.24-.24m1.2-.12c-.149 0-.27.12-.27.27l-.075 4.65.075 2.475c.015.149.135.27.27.27.149 0 .27-.12.27-.27l.09-2.475-.09-4.65c0-.149-.12-.27-.27-.27m1.245-.03c-.165 0-.3.135-.3.3l-.06 4.68.06 2.445c0 .165.135.3.3.3.15 0 .3-.135.3-.3l.075-2.445-.075-4.68c0-.165-.15-.3-.3-.3m1.29 0c-.18 0-.315.135-.315.315l-.045 4.68.045 2.43c0 .18.135.315.315.315.18 0 .315-.135.315-.315l.06-2.43-.06-4.68c0-.18-.135-.315-.315-.315m1.35.045c-.194 0-.344.149-.344.344l-.03 4.635.03 2.4c0 .195.15.345.345.345.194 0 .344-.15.344-.345l.045-2.4-.045-4.635c0-.195-.149-.345-.344-.345m1.395.045c-.21 0-.375.165-.375.375l-.015 4.59.015 2.385c0 .21.165.375.375.375.21 0 .375-.165.375-.375l.03-2.385-.03-4.59c0-.21-.165-.375-.375-.375m2.37 1.125c-.375 0-.735.075-1.065.21-.15-1.77-1.635-3.165-3.45-3.165-.45 0-.885.09-1.29.24-.165.06-.21.135-.21.27v8.7c0 .135.105.255.255.27h5.775c1.32 0 2.4-1.08 2.4-2.4s-1.095-2.4-2.415-2.4"/>
</svg>
